# xmcd
# 
# Track frame offsets:
#     150
#     11802
#     20872
#     31085
#     42177
#     50540
#     61355
#     70250
#     80205
#     89900
#     98092
#     106977
#     117177
#     127065
#     137522
#     145187
#     153085
#     165102
#     174435
#     182120
# 
# Disc length: 2516
# 
# Revision: 1
# Processed by: cddbd v1.5.2PL0 Copyright (c) Steve Scherf et al.
# Submitted via: fre:ac v1.0.31
# 
DISCID=1009d214
DTITLE=Johnny Cash - His Sun Years, Country Boy, Disc2
DYEAR=0
DGENRE=Country
TTITLE0=So Doggone Lonesome
TTITLE1=I Couldn't Keep From Crying
TTITLE2=There You Go
TTITLE3=Don't Make Me Go
TTITLE4=Country Boy
TTITLE5=I Heard That Lonesome Whistle Blow
TTITLE6=Remember Me (I'm The One Who Loves You)
TTITLE7=Goodbye Little Darlin'
TTITLE8=Born To Loose
TTITLE9=Always Alone
TTITLE10=Life Goes On
TTITLE11=You Win Again
TTITLE12=I Could Never Be Ashamed Of You
TTITLE13=Cold, Cold Heart
TTITLE14=Hey Good Lookin'
TTITLE15=I Can't Help It
TTITLE16=Give My Love To Rose
TTITLE17=New Mexico
TTITLE18=If The Good Lord's Willing
TTITLE19=Leave That Junk Alone
EXTD=
EXTT0=
EXTT1=
EXTT2=
EXTT3=
EXTT4=
EXTT5=
EXTT6=
EXTT7=
EXTT8=
EXTT9=
EXTT10=
EXTT11=
EXTT12=
EXTT13=
EXTT14=
EXTT15=
EXTT16=
EXTT17=
EXTT18=
EXTT19=
PLAYORDER=
